{
    "asset" : {
        "generator" : "Khronos glTF Blender I/O v3.2.43",
        "version" : "2.0"
    },
    "scene" : 0,
    "scenes" : [
        {
            "name" : "Scene",
            "nodes" : [
                0
            ]
        }
    ],
    "nodes" : [
        {
            "mesh" : 0,
            "name" : "Sphere.002",
            "scale" : [
                1.9598054885864258,
                1,
                1
            ]
        }
    ],
    "materials" : [
        {
            "doubleSided" : true,
            "name" : "Material.007",
            "pbrMetallicRoughness" : {
                "baseColorTexture" : {
                    "index" : 0
                },
                "metallicFactor" : 0,
                "roughnessFactor" : 0.5
            }
        },
        {
            "doubleSided" : true,
            "name" : "Material.006",
            "pbrMetallicRoughness" : {
                "baseColorTexture" : {
                    "index" : 1
                },
                "metallicFactor" : 0,
                "roughnessFactor" : 0.5
            }
        }
    ],
    "meshes" : [
        {
            "name" : "Sphere.002",
            "primitives" : [
                {
                    "attributes" : {
                        "POSITION" : 0,
                        "NORMAL" : 1,
                        "TEXCOORD_0" : 2
                    },
                    "indices" : 3,
                    "material" : 0
                },
                {
                    "attributes" : {
                        "POSITION" : 4,
                        "NORMAL" : 5,
                        "TEXCOORD_0" : 6
                    },
                    "indices" : 7,
                    "material" : 1
                }
            ]
        }
    ],
    "textures" : [
        {
            "sampler" : 0,
            "source" : 0
        },
        {
            "sampler" : 0,
            "source" : 1
        }
    ],
    "images" : [
        {
            "bufferView" : 4,
            "mimeType" : "image/jpeg",
            "name" : "images"
        },
        {
            "bufferView" : 9,
            "mimeType" : "image/jpeg",
            "name" : "istockphoto-689404938-170667a"
        }
    ],
    "accessors" : [
        {
            "bufferView" : 0,
            "componentType" : 5126,
            "count" : 2389,
            "max" : [
                2.5636351108551025,
                0.7828059196472168,
                0.7744172215461731
            ],
            "min" : [
                -0.19033847749233246,
                -0.7776181697845459,
                -0.759583592414856
            ],
            "type" : "VEC3"
        },
        {
            "bufferView" : 1,
            "componentType" : 5126,
            "count" : 2389,
            "type" : "VEC3"
        },
        {
            "bufferView" : 2,
            "componentType" : 5126,
            "count" : 2389,
            "type" : "VEC2"
        },
        {
            "bufferView" : 3,
            "componentType" : 5123,
            "count" : 11904,
            "type" : "SCALAR"
        },
        {
            "bufferView" : 5,
            "componentType" : 5126,
            "count" : 2413,
            "max" : [
                -0.28885069489479065,
                1.1233956813812256,
                1.2656753063201904
            ],
            "min" : [
                -2.115316390991211,
                -1.124781608581543,
                -1.12273108959198
            ],
            "type" : "VEC3"
        },
        {
            "bufferView" : 6,
            "componentType" : 5126,
            "count" : 2413,
            "type" : "VEC3"
        },
        {
            "bufferView" : 7,
            "componentType" : 5126,
            "count" : 2413,
            "type" : "VEC2"
        },
        {
            "bufferView" : 8,
            "componentType" : 5123,
            "count" : 11904,
            "type" : "SCALAR"
        }
    ],
    "bufferViews" : [
        {
            "buffer" : 0,
            "byteLength" : 28668,
            "byteOffset" : 0
        },
        {
            "buffer" : 0,
            "byteLength" : 28668,
            "byteOffset" : 28668
        },
        {
            "buffer" : 0,
            "byteLength" : 19112,
            "byteOffset" : 57336
        },
        {
            "buffer" : 0,
            "byteLength" : 23808,
            "byteOffset" : 76448
        },
        {
            "buffer" : 0,
            "byteLength" : 15349,
            "byteOffset" : 100256
        },
        {
            "buffer" : 0,
            "byteLength" : 28956,
            "byteOffset" : 115608
        },
        {
            "buffer" : 0,
            "byteLength" : 28956,
            "byteOffset" : 144564
        },
        {
            "buffer" : 0,
            "byteLength" : 19304,
            "byteOffset" : 173520
        },
        {
            "buffer" : 0,
            "byteLength" : 23808,
            "byteOffset" : 192824
        },
        {
            "buffer" : 0,
            "byteLength" : 138833,
            "byteOffset" : 216632
        }
    ],
    "samplers" : [
        {
            "magFilter" : 9729,
            "minFilter" : 9987
        }
    ],
    "buffers" : [
        {
            "byteLength" : 355468,
            "uri" : "data:application/octet-stream;base64,"
        }
    ]
}
