{
    "asset" : {
        "generator" : "Khronos glTF Blender I/O v3.4.50",
        "version" : "2.0"
    },
    "scene" : 0,
    "scenes" : [
        {
            "name" : "Scene",
            "nodes" : [
                2
            ]
        }
    ],
    "nodes" : [
        {
            "mesh" : 0,
            "name" : "Object_3"
        },
        {
            "children" : [
                0
            ],
            "name" : "235d4c29fcef47bbb65144ea0442dd93.obj.cleaner.materialmerger.gle"
        },
        {
            "children" : [
                1
            ],
            "name" : "Sketchfab_model",
            "rotation" : [
                -0.70710688829422,
                0,
                0,
                0.7071066498756409
            ],
            "translation" : [
                0,
                3.7033092975616455,
                0
            ]
        }
    ],
    "materials" : [
        {
            "doubleSided" : true,
            "name" : "Material_Untitled",
            "normalTexture" : {
                "index" : 0,
                "scale" : 0.3431783616542816
            },
            "occlusionTexture" : {
                "index" : 1,
                "strength" : 0.9773247241973877
            },
            "pbrMetallicRoughness" : {
                "baseColorTexture" : {
                    "index" : 2
                },
                "metallicFactor" : 0.9590319991111755,
                "metallicRoughnessTexture" : {
                    "index" : 1
                },
                "roughnessFactor" : 0.6785442233085632
            }
        },
        {
            "doubleSided" : true,
            "name" : "Material.001",
            "occlusionTexture" : {
                "index" : 3
            },
            "pbrMetallicRoughness" : {
                "baseColorTexture" : {
                    "index" : 4
                },
                "metallicFactor" : 0.7700076103210449,
                "metallicRoughnessTexture" : {
                    "index" : 3
                },
                "roughnessFactor" : 0.7604801654815674
            }
        }
    ],
    "meshes" : [
        {
            "name" : "Object_1",
            "primitives" : [
                {
                    "attributes" : {
                        "POSITION" : 0,
                        "TEXCOORD_0" : 1,
                        "NORMAL" : 2
                    },
                    "indices" : 3,
                    "material" : 0
                },
                {
                    "attributes" : {
                        "POSITION" : 4,
                        "TEXCOORD_0" : 5,
                        "NORMAL" : 6
                    },
                    "indices" : 7,
                    "material" : 1
                }
            ]
        }
    ],
    "textures" : [
        {
            "sampler" : 0,
            "source" : 0
        },
        {
            "sampler" : 0,
            "source" : 1
        },
        {
            "sampler" : 0,
            "source" : 2
        },
        {
            "sampler" : 0,
            "source" : 3
        },
        {
            "sampler" : 0,
            "source" : 4
        }
    ],
    "images" : [
        {
            "bufferView" : 4,
            "mimeType" : "image/png",
            "name" : "Material_Untitled_normal"
        },
        {
            "bufferView" : 5,
            "mimeType" : "image/png",
            "name" : "Material_Untitled_metallicRoughness"
        },
        {
            "bufferView" : 6,
            "mimeType" : "image/png",
            "name" : "Material_Untitled_baseColor"
        },
        {
            "bufferView" : 11,
            "mimeType" : "image/png",
            "name" : "Material_metallicRoughness"
        },
        {
            "bufferView" : 12,
            "mimeType" : "image/png",
            "name" : "Material_baseColor"
        }
    ],
    "accessors" : [
        {
            "bufferView" : 0,
            "componentType" : 5126,
            "count" : 797,
            "max" : [
                1.3948849439620972,
                1.4601800441741943,
                -0.02535800077021122
            ],
            "min" : [
                -1.3587080240249634,
                -1.3661689758300781,
                -0.1519719958305359
            ],
            "type" : "VEC3"
        },
        {
            "bufferView" : 1,
            "componentType" : 5126,
            "count" : 797,
            "type" : "VEC2"
        },
        {
            "bufferView" : 2,
            "componentType" : 5126,
            "count" : 797,
            "type" : "VEC3"
        },
        {
            "bufferView" : 3,
            "componentType" : 5123,
            "count" : 912,
            "type" : "SCALAR"
        },
        {
            "bufferView" : 7,
            "componentType" : 5126,
            "count" : 287,
            "max" : [
                1.5941640138626099,
                1.6156320571899414,
                -0.14960800111293793
            ],
            "min" : [
                -1.568321943283081,
                -1.546854019165039,
                -0.2560740113258362
            ],
            "type" : "VEC3"
        },
        {
            "bufferView" : 8,
            "componentType" : 5126,
            "count" : 287,
            "type" : "VEC2"
        },
        {
            "bufferView" : 9,
            "componentType" : 5126,
            "count" : 287,
            "type" : "VEC3"
        },
        {
            "bufferView" : 10,
            "componentType" : 5123,
            "count" : 366,
            "type" : "SCALAR"
        }
    ],
    "bufferViews" : [
        {
            "buffer" : 0,
            "byteLength" : 9564,
            "byteOffset" : 0,
            "target" : 34962
        },
        {
            "buffer" : 0,
            "byteLength" : 6376,
            "byteOffset" : 9564,
            "target" : 34962
        },
        {
            "buffer" : 0,
            "byteLength" : 9564,
            "byteOffset" : 15940,
            "target" : 34962
        },
        {
            "buffer" : 0,
            "byteLength" : 1824,
            "byteOffset" : 25504,
            "target" : 34963
        },
        {
            "buffer" : 0,
            "byteLength" : 695793,
            "byteOffset" : 27328
        },
        {
            "buffer" : 0,
            "byteLength" : 214710,
            "byteOffset" : 723124
        },
        {
            "buffer" : 0,
            "byteLength" : 7059,
            "byteOffset" : 937836
        },
        {
            "buffer" : 0,
            "byteLength" : 3444,
            "byteOffset" : 944896,
            "target" : 34962
        },
        {
            "buffer" : 0,
            "byteLength" : 2296,
            "byteOffset" : 948340,
            "target" : 34962
        },
        {
            "buffer" : 0,
            "byteLength" : 3444,
            "byteOffset" : 950636,
            "target" : 34962
        },
        {
            "buffer" : 0,
            "byteLength" : 732,
            "byteOffset" : 954080,
            "target" : 34963
        },
        {
            "buffer" : 0,
            "byteLength" : 39101,
            "byteOffset" : 954812
        },
        {
            "buffer" : 0,
            "byteLength" : 616960,
            "byteOffset" : 993916
        }
    ],
    "samplers" : [
        {
            "magFilter" : 9729,
            "minFilter" : 9987
        }
    ],
    "buffers" : [
        {
            "byteLength" : 1610876,
            "uri" : "data:application/octet-stream;base64,"
        }
    ]
}
